
***** Damage.2009.x264.AC3(5.1).Multisub.mkv-Zen_Bud *****

Format                           : Matroska
File size                        : 1.45 GiB
Duration                         : 1h 47mn
Overall bit rate                 : 1 930 Kbps
Writing application              : HandBrake svn3506
Writing library                  : libmkv 0.6.4.1

Video

Format                           : AVC
Duration                         : 1h 47mn
Bit rate                         : 1 443 Kbps
Width                            : 720 pixels
Height                           : 576 pixels
Display aspect ratio             : 16:9
Stream size                      : 1.09 GiB (75%)
Writing library                  : x264 core 104


Audio

Format                           : AC-3
Duration                         : 1h 47mn
Bit rate                         : 448 Kbps
Channel(s)                       : 6 channels
Channel positions                : Front: L C R, Side: L R, LFE
Sampling rate                    : 48.0 KHz
Bit depth                        : 16 bits
Stream size                      : 346 MiB (23%)
Language                         : English

Text #1
Language                         : Swedish

Text #2
Language                         : Norwegian

Text #3
Language                         : Finnish

Menu
00:00:00.000                     : Chapter  1
00:05:40.800                     : Chapter  2


